# xmcd
#
# Track frame offsets:
#	150
#	19900
#	46782
#	66682
#
# Disc length: 1245 seconds
#
# Revision: 1
# Processed by: cddbd v1.5PL3 Copyright (c) Steve Scherf et al.
# Submitted via: CDex 1.50Beta5
#
DISCID=3304db04
DTITLE=小沢健二 - 愛し愛されて生きるのさ
DYEAR=1900
DGENRE=Pop
TTITLE0=愛し愛されて生きるのさ
TTITLE1=東京恋愛専科・または恋は言ってみりゃボディー・ブロー
TTITLE2=愛し愛されて生きるのさ (オリジナル・カラオケ)
TTITLE3=東京恋愛専科・または恋は言ってみりゃボディー・ブロー
EXTD=
EXTT0=
EXTT1=
EXTT2=
EXTT3=
PLAYORDER=
